<svg width="300" height="420" viewBox="0 0 300 420" fill="none" xmlns="http://www.w3.org/2000/svg">
  <rect width="300" height="420" rx="12" fill="#F3F4F6"/>
  <rect x="20" y="20" width="260" height="380" rx="8" fill="#E5E7EB"/>
  <path d="M150 140C133.431 140 120 153.431 120 170V250C120 266.569 133.431 280 150 280C166.569 280 180 266.569 180 250V170C180 153.431 166.569 140 150 140Z" fill="#D1D5DB"/>
  <circle cx="150" cy="190" r="20" fill="#9CA3AF"/>
  <rect x="40" y="320" width="220" height="60" rx="4" fill="#D1D5DB"/>
  <rect x="50" y="330" width="100" height="8" rx="4" fill="#9CA3AF"/>
  <rect x="50" y="345" width="150" height="8" rx="4" fill="#9CA3AF"/>
  <rect x="50" y="360" width="80" height="8" rx="4" fill="#9CA3AF"/>
</svg>